<?xml version="1.0" encoding="utf-8"?>
<!-- Generator: Adobe Illustrator 17.0.2, SVG Export Plug-In . SVG Version: 6.00 Build 0)  -->
<!DOCTYPE svg PUBLIC "-//W3C//DTD SVG 1.1//EN" "http://www.w3.org/Graphics/SVG/1.1/DTD/svg11.dtd">
<svg version="1.1" id="Layer_1" xmlns="http://www.w3.org/2000/svg" xmlns:xlink="http://www.w3.org/1999/xlink" x="0px" y="0px"
	 width="160px" height="52px" viewBox="-218.598 445.244 160 52" enable-background="new -218.598 445.244 160 52"
	 xml:space="preserve">
<path fill="#9C9B9B" d="M-190.403,476.29c0.121-0.213,0.176-0.416,0.176-0.592c0-0.404-0.228-0.598-0.691-0.598
	c-0.333,0-0.684,0.111-1.043,0.342c-0.363,0.232-0.638,0.518-0.822,0.848l-5.518,9.551c-0.198,0.328-0.482,0.609-0.845,0.843
	c-0.372,0.233-0.714,0.353-1.043,0.353h-5.973c-0.461,0-0.698-0.205-0.698-0.6c0-0.184,0.067-0.391,0.196-0.602l5.5-9.545
	c0.129-0.213,0.198-0.416,0.198-0.6c0-0.396-0.233-0.59-0.692-0.59c-0.334,0-0.681,0.111-1.049,0.342
	c-0.36,0.232-0.645,0.518-0.844,0.848l-5.494,9.545c-0.199,0.334-0.483,0.613-0.845,0.849c-0.36,0.233-0.714,0.353-1.043,0.353
	h-5.963c-0.468,0-0.702-0.199-0.702-0.6c0-0.184,0.069-0.382,0.205-0.602l6.187-10.732c0.196-0.333,0.477-0.618,0.845-0.848
	c0.367-0.235,0.714-0.354,1.047-0.354h27.442c0.47,0,0.696,0.201,0.696,0.603c0,0.182-0.063,0.382-0.198,0.6l-11.534,19.981
	c-0.253,0.432-0.504,0.647-0.773,0.647c-0.145,0-0.272-0.083-0.369-0.251l-3.309-5.593c-0.1-0.182-0.149-0.411-0.149-0.694
	c0-0.416,0.098-0.789,0.294-1.12L-190.403,476.29"/>
<path fill="#9C9B9B" d="M-160.605,473.98c0.466,0,0.699,0.2,0.699,0.6c0,0.185-0.068,0.381-0.199,0.602l-6.194,10.732
	c-0.184,0.334-0.456,0.611-0.827,0.851c-0.38,0.231-0.722,0.352-1.062,0.352h-16.705c-0.448,0-0.667-0.201-0.667-0.602
	c0-0.181,0.052-0.379,0.172-0.601l6.188-10.732c0.201-0.332,0.479-0.616,0.851-0.848c0.36-0.233,0.714-0.354,1.043-0.354h5.962
	c0.46,0,0.694,0.2,0.694,0.6c0,0.185-0.058,0.381-0.196,0.602l-5.491,9.546c-0.132,0.215-0.198,0.415-0.198,0.599
	c0,0.395,0.236,0.592,0.691,0.592c0.334,0,0.68-0.116,1.045-0.351c0.369-0.229,0.645-0.51,0.85-0.84l5.493-9.546
	c0.193-0.332,0.479-0.616,0.841-0.848c0.366-0.233,0.714-0.354,1.044-0.354H-160.605"/>
<path fill="#9C9B9B" d="M-148.083,471.125c0.103,0.16,0.149,0.386,0.149,0.669c0,0.416-0.098,0.798-0.297,1.146l-7.479,12.976
	c-0.201,0.33-0.486,0.609-0.841,0.847c-0.374,0.232-0.72,0.353-1.051,0.353h-5.962c-0.467,0-0.7-0.201-0.7-0.601
	c0-0.183,0.066-0.381,0.199-0.599l7.583-13.123l3.953-6.862c0.246-0.432,0.509-0.648,0.789-0.648c0.153,0,0.267,0.072,0.355,0.219
	L-148.083,471.125"/>
<path fill="#9C9B9B" d="M-150.438,495.161c-0.248,0.434-0.512,0.648-0.795,0.648c-0.157,0-0.272-0.083-0.371-0.25l-3.287-5.592
	c-0.099-0.166-0.146-0.376-0.146-0.618c0-0.481,0.114-0.933,0.368-1.347l11.533-19.987c0.182-0.331,0.466-0.612,0.837-0.847
	c0.372-0.231,0.728-0.35,1.057-0.35h5.964c0.447,0,0.674,0.201,0.674,0.598c0,0.183-0.061,0.383-0.18,0.599l-1.383,2.386
	c-0.125,0.218-0.182,0.415-0.182,0.601c0,0.393,0.228,0.59,0.693,0.59c0.603,0,0.895,0.14,0.895,0.429
	c0,0.244-0.208,0.442-0.639,0.595c-0.35,0.117-0.666,0.178-0.949,0.178c-0.33,0-0.682,0.113-1.049,0.341
	c-0.355,0.233-0.643,0.516-0.839,0.846L-150.438,495.161"/>
<path fill="#9C9B9B" d="M-130.682,478.749c-0.107,0.213-0.162,0.416-0.162,0.597c0,0.399,0.229,0.607,0.69,0.607
	c0.313,0,0.662-0.117,1.037-0.353c0.369-0.231,0.647-0.517,0.83-0.849l1.4-2.385c0.106-0.216,0.167-0.418,0.167-0.596
	c0-0.404-0.229-0.597-0.671-0.597c-0.335,0-0.687,0.114-1.062,0.345c-0.371,0.231-0.652,0.516-0.836,0.839L-130.682,478.749
	 M-131.907,481.491c-0.365,0.228-0.648,0.51-0.849,0.842l-1.372,2.373c-0.119,0.22-0.18,0.422-0.18,0.607
	c0,0.396,0.23,0.6,0.695,0.6c0.33,0,0.685-0.113,1.048-0.348c0.364-0.231,0.649-0.512,0.846-0.841l0.705-1.196
	c0.173-0.334,0.452-0.613,0.813-0.85c0.357-0.226,0.707-0.34,1.041-0.34h5.971c0.453,0,0.688,0.195,0.688,0.598
	c0,0.18-0.051,0.375-0.17,0.592l-1.389,2.385c-0.184,0.334-0.462,0.613-0.833,0.849c-0.377,0.233-0.731,0.354-1.062,0.354h-16.705
	c-0.44,0-0.665-0.201-0.665-0.602c0-0.181,0.064-0.379,0.171-0.601l6.218-10.733c0.184-0.333,0.455-0.614,0.814-0.847
	c0.369-0.236,0.721-0.354,1.053-0.354h16.705c0.457,0,0.689,0.199,0.689,0.6c0,0.185-0.053,0.381-0.169,0.601l-2.763,4.773
	c-0.201,0.332-0.487,0.606-0.852,0.842c-0.365,0.231-0.713,0.348-1.045,0.348h-8.361
	C-131.192,481.14-131.546,481.258-131.907,481.491"/>
<path fill="#9C9B9B" d="M-105.409,478.753c-0.461,0-0.692-0.198-0.692-0.594c0-0.184,0.058-0.38,0.169-0.596l0.7-1.195
	c0.12-0.216,0.167-0.416,0.167-0.596c0-0.402-0.217-0.596-0.662-0.596c-0.333,0-0.68,0.111-1.042,0.344
	c-0.37,0.23-0.647,0.516-0.845,0.848l-4.824,8.355c-0.119,0.215-0.182,0.415-0.182,0.598c0,0.395,0.228,0.595,0.676,0.595
	c0.33,0,0.685-0.117,1.056-0.352c0.371-0.234,0.649-0.511,0.83-0.841l2.065-3.576c0.205-0.34,0.48-0.619,0.848-0.854
	c0.365-0.229,0.714-0.344,1.044-0.344h5.963c0.472,0,0.699,0.195,0.699,0.602c0,0.178-0.067,0.375-0.198,0.591l-2.762,4.772
	c-0.176,0.33-0.459,0.609-0.833,0.848c-0.368,0.23-0.718,0.354-1.033,0.354h-16.706c-0.467,0-0.692-0.201-0.692-0.602
	c0-0.184,0.058-0.381,0.176-0.6l6.212-10.735c0.181-0.332,0.459-0.616,0.831-0.849c0.369-0.234,0.727-0.354,1.062-0.354h16.706
	c0.443,0,0.666,0.201,0.666,0.602c0,0.183-0.06,0.381-0.175,0.601l-1.393,2.387c-0.18,0.331-0.457,0.609-0.834,0.839
	c-0.371,0.232-0.713,0.352-1.028,0.352h-5.97"/>
<path fill="#BE1818" d="M-78.259,452.868c0.224-0.409,0.336-0.796,0.336-1.142c0-0.765-0.448-1.147-1.335-1.147
	c-0.639,0-1.305,0.222-2.003,0.666c-0.7,0.446-1.228,0.991-1.578,1.629l-9.838,16.29c-0.386,0.629-0.921,1.173-1.624,1.619
	c-0.701,0.446-1.369,0.667-2.009,0.667h-11.454c-0.897,0-1.34-0.39-1.34-1.148c0-0.35,0.123-0.737,0.374-1.148l9.866-16.484
	c0.259-0.417,0.39-0.798,0.39-1.149c0-0.761-0.448-1.138-1.338-1.138c-0.636,0-1.304,0.221-2,0.665
	c-0.703,0.445-1.241,0.99-1.624,1.621l-9.866,16.484c-0.381,0.639-0.922,1.178-1.62,1.629c-0.709,0.446-1.371,0.667-2.012,0.667
	h-11.452c-0.892,0-1.336-0.381-1.336-1.146c0-0.35,0.125-0.729,0.38-1.147l11.887-20.617c0.381-0.638,0.922-1.175,1.623-1.62
	c0.699-0.451,1.366-0.675,2.007-0.675h52.689c0.896,0,1.34,0.391,1.34,1.149c0,0.353-0.13,0.731-0.387,1.147l-22.143,38.374
	c-0.479,0.832-0.972,1.238-1.479,1.238c-0.289,0-0.524-0.156-0.72-0.472l-6.348-10.743c-0.191-0.354-0.285-0.796-0.285-1.333
	c0-0.796,0.188-1.514,0.57-2.151L-78.259,452.868"/>
</svg>
